<?xml version="1.0" encoding="UTF-8" standalone="no"?>
<!-- Created with Inkscape (http://www.inkscape.org/) -->

<svg
   width="65.943642mm"
   height="64.08213mm"
   viewBox="0 0 65.943642 64.08213"
   version="1.1"
   id="svg1"
   xml:space="preserve"
   inkscape:version="1.4.2 (ebf0e940d0, 2025-05-08)"
   sodipodi:docname="icon-basic.svg"
   xmlns:inkscape="http://www.inkscape.org/namespaces/inkscape"
   xmlns:sodipodi="http://sodipodi.sourceforge.net/DTD/sodipodi-0.dtd"
   xmlns="http://www.w3.org/2000/svg"
   xmlns:svg="http://www.w3.org/2000/svg"><sodipodi:namedview
     id="namedview1"
     pagecolor="#ffffff"
     bordercolor="#666666"
     borderopacity="1.0"
     inkscape:showpageshadow="2"
     inkscape:pageopacity="0.0"
     inkscape:pagecheckerboard="0"
     inkscape:deskcolor="#d1d1d1"
     inkscape:document-units="mm"
     inkscape:zoom="1.7140011"
     inkscape:cx="188.44795"
     inkscape:cy="298.13283"
     inkscape:window-width="3840"
     inkscape:window-height="2126"
     inkscape:window-x="1920"
     inkscape:window-y="0"
     inkscape:window-maximized="1"
     inkscape:current-layer="layer1" /><defs
     id="defs1" /><g
     inkscape:label="Layer 1"
     inkscape:groupmode="layer"
     id="layer1"
     transform="translate(-55.033332,-69.585417)"><path
       style="fill:#102430;stroke:none"
       d="M 106.48798,72.675117 H 76.060899 c -5.65459,0 -11.48285,-0.50482 -16.11542,3.39046 -4.73012,3.9773 -4.78666,9.4613 -4.78667,15.13037 v 20.637503 c 0,3.94176 -0.53676,8.35255 0.61005,12.17084 1.19707,3.98561 4.22481,7.17049 8.12121,8.61331 4.25018,1.57383 9.30402,0.91169 13.75833,0.91169 H 101.4609 c 6.42713,0 11.12997,0.23661 16.23052,-4.68408 2.0412,-1.96922 3.22624,-4.23761 3.27975,-11.3636 0.0464,-6.17425 -0.2044,-13.316 -0.0865,-15.11858 l -0.10922,-13.812913 c -5e-4,-1.65831 -0.20517,-7.03247 -0.20517,-7.03247 l -10.92209,3.13596 c 0,0 0.015,3.96914 0.0148,5.48401 l -2e-5,10.847923 c -4.02863,-1.276453 -13.097851,3.56989 -7.92125,8.393 2.67993,2.49692 8.70606,0.69423 9.8134,-2.43825 0.33342,-0.55355 0.56744,-2.02252 0.56796,-3.90015 0.002,-6.997753 -0.0789,-8.889223 -0.0789,-11.844193 l 6.61458,-1.85208 c 0,8.02773 -0.26458,16.046003 -0.26458,24.077083 0,4.21455 0.58021,8.78691 -1.97854,12.43136 -3.53412,5.03367 -8.66322,4.76656 -14.16104,4.76656 H 72.885849 c -4.76756,-7e-5 -8.97708,-0.2436 -12.22958,-4.24606 -2.86157,-3.52141 -2.05792,-8.44608 -2.05792,-12.68727 V 91.989697 c 0,-5.9412 0.17737,-11.60238 6.35007,-14.53234 4.03881,-1.91708 9.40629,-1.07807 13.75826,-1.07807 h 27.781251 l -0.0401,3.80666 7.75531,-5.51241 -7.82568,-5.08812 0.11043,3.0897 m -1.85208,40.745833 -2.38125,-0.26458 v 8.73125 H 92.200389 l 0.26458,-13.22917 c 2.94112,-0.53549 2.64467,-3.09119 2.64575,-5.55625 l 9e-5,-15.610413 h 7.143751 v 11.90625 c 3.50185,-1.42208 2.39622,-6.10653 2.37961,-9.26033 -0.009,-1.62345 0.0729,-3.69096 -1.67807,-4.46856 -2.43874,-1.08303 -6.528821,-0.29403 -9.168211,-0.29403 -5.90262,0 -11.82682,0.14708 -17.72708,-0.0194 -2.69244,-0.076 -6.10015,-0.88971 -8.67755,0.15148 -1.95125,0.78824 -2.14198,2.78549 -2.16543,4.63051 -0.0527,4.14381 -0.005,8.29117 -0.005,12.435333 l 8e-5,15.08125 c 8.1e-4,2.00966 -0.2934,4.57309 1.4812,5.97361 1.9901,1.5706 5.67149,0.90555 8.04372,0.90555 h 20.37292 c 2.43507,0 6.314561,0.70832 8.267801,-1.08199 2.25118,-2.06341 1.2572,-7.26515 1.2572,-10.03051 m -30.691671,-25.929163 1.2e-4,15.610413 c 0.001,2.47385 -0.18184,4.84387 2.64571,5.55625 v 13.49375 c -1.94563,0 -7.06284,0.9059 -8.45107,-0.68719 -1.4661,-1.68245 -0.54476,-6.71929 -0.54476,-8.83781 0,-8.14214 -1.04257,-17.096483 0.26458,-25.135413 h 6.08542 m 13.49375,0 9e-5,15.610413 c 0.001,2.46506 -0.29538,5.02076 2.64574,5.55625 v 13.49375 h -11.1125 v -13.49375 c 2.94112,-0.53549 2.64467,-3.09119 2.64575,-5.55625 l 9e-5,-15.610413 z"
       id="path1"
       sodipodi:nodetypes="cssssssssssccccccscsccssscssssscccccccccccccccsssssccsssscccccssccccccccccc" /></g></svg>
